#!OML:ASF F:\VICON\USERDATA\INSTALL\rory3\rory3.ASF
:FULLY-SPECIFIED
:DEGREES
1213
root -3.20398 14.7099 -17.6781 -366.71 -20.2486 368.131
lowerback 19.6178 2.02694 -5.77529
upperback 0.494501 1.22274 -1.19311
thorax -10.5988 0.825092 1.62958
lowerneck -15.348 -5.43974 -1.91497
upperneck 18.2664 -7.72198 3.11586
head 8.41145 -3.47203 0.445138
rclavicle -1.03368e-014 -9.14409e-015
rhumerus 45.5728 36.2101 -36.2841
rradius 66.7776
rwrist -55.1827
rhand -2.30034 12.385
rfingers 7.12502
rthumb 23.3853 -16.2142
lclavicle -1.03368e-014 -9.14409e-015
lhumerus -9.45323 -50.6903 91.2007
lradius 40.5223
lwrist -13.4868
lhand -17.8023 11.7095
lfingers 7.12502
lthumb 8.4611 41.52
rfemur -28.2666 -26.767 27.6668
rtibia 61.1554
rfoot -43.6957 -14.6571
rtoes 27.4734
lfemur -33.5611 7.97872 -7.20844
ltibia 38.8649
lfoot -1.86849 16.8846
ltoes 31.9659
1214
root -3.2228 14.7139 -17.6715 -366.76 -20.0981 368.021
lowerback 19.5553 2.08663 -5.6144
upperback 0.531619 1.34649 -1.17307
thorax -10.5274 0.873952 1.52707
lowerneck -14.5203 -5.48613 -1.96548
upperneck 17.6297 -7.76817 3.19216
head 8.05685 -3.51341 0.504234
rclavicle -9.93923e-016 -9.93923e-015
rhumerus 46.0083 34.9557 -36.996
rradius 66.588
rwrist -53.4802
rhand -1.15417 12.0156
rfingers 7.12502
rthumb 24.4844 -16.4394
lclavicle -9.93923e-016 -9.93923e-015
lhumerus -9.9403 -51.0474 91.3109
lradius 40.0141
lwrist -14.9217
lhand -18.2594 12.7498
lfingers 7.12502
lthumb 8.01995 42.5777
rfemur -27.9814 -27.1251 27.6931
rtibia 60.9789
rfoot -43.3619 -15.1276
rtoes 26.2863
lfemur -33.6091 7.91312 -7.36253
ltibia 38.7576
lfoot -1.95938 16.7495
ltoes 32.2648
1215
root -3.25056 14.7151 -17.6699 -366.892 -20.1813 367.933
lowerback 19.5689 2.22973 -5.66128
upperback 0.569652 1.53234 -1.10653
thorax -10.5089 0.964695 1.57405
lowerneck -14.5454 -5.46169 -1.8828
upperneck 17.7291 -7.73015 3.05749
head 8.08412 -3.50121 0.449345
rclavicle 2.39039e-014 -1.59028e-014
rhumerus 45.22 34.0843 -36.8462
rradius 67.6594
rwrist -52.842
rhand -0.867268 12.6068
rfingers 7.12502
rthumb 24.7594 -15.8107
lclavicle 2.39039e-014 -1.59028e-014
lhumerus -10.2075 -49.9439 91.2296
lradius 39.4395
lwrist -16.0948
lhand -18.4561 13.0515
lfingers 7.12502
lthumb 7.83011 42.8865
rfemur -27.6499 -27.2314 27.7771
rtibia 60.8117
rfoot -43.005 -15.9562
rtoes 23.4937
lfemur -33.4932 8.26786 -7.46534
ltibia 38.503
lfoot -1.3711 16.6893
ltoes 30.2867
1216
root -3.27411 14.7196 -17.667 -367.005 -20.1094 367.921
lowerback 19.5487 2.27347 -5.65612
upperback 0.565463 1.59848 -1.05547
thorax -10.5085 0.997367 1.60875
lowerneck -14.0345 -5.3701 -2.14822
upperneck 17.3493 -7.56913 3.23871
head 7.88102 -3.43855 0.588652
rclavicle 5.55603e-014 -7.95139e-016
rhumerus 45.3346 33.4345 -36.4741
rradius 68.397
rwrist -52.4537
rhand -1.19801 12.2776
rfingers 7.12502
rthumb 24.4424 -16.1831
lclavicle 5.55603e-014 -7.95139e-016
lhumerus -10.359 -50.6086 91.0453
lradius 39.0489
lwrist -14.9938
lhand -18.5493 13.2923
lfingers 7.12502
lthumb 7.7402 43.1307
rfemur -27.334 -27.1936 27.7578
rtibia 60.6685
rfoot -43.3076 -15.4322
rtoes 24.7868
lfemur -33.3488 7.97226 -7.56775
ltibia 38.2927
lfoot -2.19163 16.7098
ltoes 32.3493
1217
root -3.29068 14.7187 -17.6632 -366.957 -20.1283 367.632
lowerback 19.6201 2.35852 -5.36633
upperback 0.522196 1.77749 -0.98678
thorax -10.6026 1.07178 1.46562
lowerneck -14.116 -5.31841 -2.14211
upperneck 17.3657 -7.5158 3.3234
head 7.90279 -3.40293 0.619012
rclavicle -4.67144e-014 2.22639e-014
rhumerus 45.3774 32.5597 -36.4592
rradius 68.9491
rwrist -52.1042
rhand -0.824644 12.7956
rfingers 7.12502
rthumb 24.8003 -15.6163
lclavicle -4.67144e-014 2.22639e-014
lhumerus -10.752 -50.9232 90.993
lradius 38.7275
lwrist -14.9089
lhand -17.1102 12.3819
lfingers 7.12502
lthumb 9.12903 42.1643
rfemur -27.1156 -27.2232 28.0667
rtibia 60.4576
rfoot -43.2802 -15.684
rtoes 24.0761
lfemur -33.4251 7.65474 -7.34372
ltibia 38.1922
lfoot -2.30121 16.9352
ltoes 33.0908
